<svg width="51" height="51" viewBox="0 0 51 51" fill="none" xmlns="http://www.w3.org/2000/svg">
<path fill-rule="evenodd" clip-rule="evenodd" d="M0 12C0 5.37258 5.37258 0 12 0H39C45.6274 0 51 5.37258 51 12V39C51 45.6274 45.6274 51 39 51H12C5.37258 51 0 45.6274 0 39V12ZM14 15C14 14.4477 14.4477 14 15 14H37C37.5523 14 38 14.4477 38 15V21C38 21.5523 37.5523 22 37 22H15C14.4477 22 14 21.5523 14 21V15ZM15 30C14.4477 30 14 30.4477 14 31V37C14 37.5523 14.4477 38 15 38H37C37.5523 38 38 37.5523 38 37V31C38 30.4477 37.5523 30 37 30H15Z" fill="#00C4A4"/>
</svg>
