<svg width="269" height="51" viewBox="0 0 269 51" fill="none" xmlns="http://www.w3.org/2000/svg">
<path d="M71.6687 45.4225C68.5007 45.4225 66.2303 44.7185 64.8575 43.3105C63.4847 41.9025 62.7983 39.9665 62.7983 37.5025V6.03369L71.7743 4.34408V36.0241C71.7743 36.7281 72.0031 37.2737 72.4607 37.6609C72.9183 38.0129 73.6399 38.1889 74.6255 38.1889C74.8367 38.1889 75.0831 38.1889 75.3647 38.1889C75.6463 38.1537 75.9455 38.1185 76.2623 38.0833L75.9983 44.6305C75.3647 44.8769 74.6607 45.0705 73.8863 45.2113C73.1119 45.3521 72.3727 45.4225 71.6687 45.4225Z" fill="#151542"/>
<path d="M80.2327 45.0001V17.7553H89.2087V45.0001H80.2327ZM84.7207 13.9537C83.7351 13.9537 82.8023 13.7073 81.9223 13.2145C81.0775 12.7217 80.4087 12.0705 79.9159 11.2609C79.4231 10.4513 79.1767 9.57129 79.1767 8.62089C79.1767 7.63529 79.4231 6.75529 79.9159 5.98089C80.4087 5.17129 81.0775 4.52009 81.9223 4.02729C82.8023 3.53449 83.7351 3.28809 84.7207 3.28809C85.7415 3.28809 86.6743 3.53449 87.5191 4.02729C88.3639 4.52009 89.0327 5.17129 89.5255 5.98089C90.0183 6.75529 90.2647 7.63529 90.2647 8.62089C90.2647 9.57129 90.0183 10.4513 89.5255 11.2609C89.0327 12.0705 88.3639 12.7217 87.5191 13.2145C86.6743 13.7073 85.7415 13.9537 84.7207 13.9537Z" fill="#151542"/>
<path d="M95.3405 45.0001V17.7553H101.993L102.68 20.6065L104.475 19.6033C105.742 18.8993 107.027 18.3361 108.329 17.9137C109.632 17.4913 110.934 17.2801 112.236 17.2801C114.489 17.2801 116.32 17.7025 117.728 18.5473C119.171 19.3569 120.244 20.4833 120.948 21.9265C121.688 23.3345 122.057 24.9361 122.057 26.7313V45.0001H113.028V29.0545C113.028 27.8577 112.729 26.9425 112.131 26.3089C111.532 25.6753 110.459 25.3585 108.91 25.3585C108.347 25.3585 107.801 25.4289 107.273 25.5697C106.78 25.6753 106.27 25.8513 105.742 26.0977L104.316 26.6257V45.0001H95.3405Z" fill="#151542"/>
<path d="M127.876 45.0001V6.03369L136.852 4.34408V27.8401H139.228L146.304 17.7553H155.966L142.344 35.3905H136.852V45.0001H127.876ZM146.04 45.0001L139.704 34.8625L145.353 27.7345L156.283 45.0001H146.04Z" fill="#151542"/>
<path d="M162.706 45.0001V25.0417H157.004V19.2337L162.706 17.7553V13.9537C162.706 11.7009 163.146 9.90569 164.026 8.56808C164.941 7.23048 166.191 6.26248 167.775 5.66408C169.394 5.03049 171.225 4.71369 173.266 4.71369C174.357 4.71369 175.484 4.81929 176.645 5.03049C177.807 5.20649 179.004 5.45289 180.236 5.76969L180.869 5.98089L179.708 12.3169L178.863 12.2113C178.3 12.1409 177.772 12.0881 177.279 12.0529C176.821 11.9825 176.399 11.9473 176.012 11.9473C174.533 11.9473 173.442 12.1761 172.738 12.6337C172.069 13.0561 171.735 13.7777 171.735 14.7985V17.7553H179.708V25.0417H171.682V45.0001H162.706Z" fill="#151542"/>
<path d="M192.799 45.4225C189.596 45.4225 187.237 44.5601 185.724 42.8353C184.21 41.1105 183.453 38.8401 183.453 36.0241V17.7553H192.429V33.6481C192.429 34.9857 192.746 35.9361 193.38 36.4993C194.013 37.0625 194.981 37.3441 196.284 37.3441C196.812 37.3441 197.305 37.2913 197.762 37.1857C198.22 37.0449 198.677 36.8865 199.135 36.7105L200.613 36.0241V17.7553H209.642V45.0001H202.937L201.828 40.1953L203.57 41.4625L200.297 43.2577C198.994 43.9265 197.709 44.4545 196.442 44.8417C195.21 45.2289 193.996 45.4225 192.799 45.4225Z" fill="#151542"/>
<path d="M225.875 45.4225C224.291 45.4225 222.672 45.2817 221.018 45.0001C219.363 44.7185 217.709 44.3313 216.054 43.8385L214.523 43.3633L215.843 37.3969L217.216 37.6609C218.554 37.8721 219.838 38.0481 221.07 38.1889C222.302 38.2945 223.499 38.3473 224.661 38.3473C225.717 38.3473 226.509 38.2417 227.037 38.0305C227.6 37.7841 227.882 37.3969 227.882 36.8689C227.882 36.5521 227.776 36.2705 227.565 36.0241C227.354 35.7777 226.931 35.5137 226.298 35.2321C225.699 34.9505 224.784 34.6337 223.552 34.2817C221.299 33.6481 219.522 32.9617 218.219 32.2225C216.952 31.4833 216.054 30.5857 215.526 29.5297C214.998 28.4737 214.734 27.1361 214.734 25.5169C214.77 23.6865 215.28 22.1729 216.266 20.9761C217.286 19.7441 218.677 18.8289 220.437 18.2305C222.197 17.5969 224.274 17.2801 226.667 17.2801C228.146 17.2801 229.642 17.4033 231.155 17.6497C232.704 17.8609 234.27 18.2129 235.854 18.7057L236.752 19.0225L235.643 24.7249L234.534 24.6193C233.232 24.4433 232.053 24.3377 230.997 24.3025C229.976 24.2321 229.096 24.1969 228.357 24.1969C226.984 24.1969 225.91 24.3025 225.136 24.5137C224.362 24.7249 223.974 25.0417 223.974 25.4641C223.974 25.8161 224.08 26.0977 224.291 26.3089C224.538 26.4849 225.048 26.6961 225.822 26.9425C226.632 27.1889 227.846 27.5409 229.466 27.9985C231.472 28.4913 233.056 29.1073 234.218 29.8465C235.379 30.5505 236.206 31.4129 236.699 32.4337C237.227 33.4193 237.491 34.6337 237.491 36.0769C237.491 38.1537 236.981 39.8961 235.96 41.3041C234.974 42.6769 233.619 43.7153 231.894 44.4193C230.17 45.0881 228.163 45.4225 225.875 45.4225Z" fill="#151542"/>
<path d="M255.513 45.4225C252.733 45.4225 250.181 44.8945 247.857 43.8385C245.569 42.7473 243.721 41.1633 242.313 39.0865C240.941 36.9745 240.254 34.4225 240.254 31.4305C240.254 29.1777 240.641 27.1713 241.416 25.4113C242.225 23.6513 243.299 22.1729 244.637 20.9761C246.009 19.7441 247.576 18.8289 249.336 18.2305C251.096 17.5969 252.944 17.2801 254.88 17.2801C257.696 17.2801 260.072 17.8785 262.008 19.0753C263.979 20.2369 265.475 21.8737 266.496 23.9857C267.552 26.0977 268.08 28.5617 268.08 31.3777V33.6481H249.494C249.741 34.7745 250.198 35.6897 250.867 36.3937C251.536 37.0625 252.363 37.5553 253.349 37.8721C254.369 38.1889 255.513 38.3473 256.781 38.3473C257.661 38.3473 258.593 38.2769 259.579 38.1361C260.6 37.9953 261.638 37.7841 262.694 37.5025L265.281 36.8689L267.552 42.4129L265.017 43.4689C263.433 44.1377 261.832 44.6305 260.213 44.9473C258.593 45.2641 257.027 45.4225 255.513 45.4225ZM249.494 28.3153H260.054C259.843 26.8369 259.333 25.7281 258.523 24.9889C257.713 24.2145 256.552 23.8273 255.038 23.8273C254.088 23.8273 253.225 23.9857 252.451 24.3025C251.712 24.6193 251.096 25.1121 250.603 25.7809C250.11 26.4497 249.741 27.2945 249.494 28.3153Z" fill="#151542"/>
<path fill-rule="evenodd" clip-rule="evenodd" d="M0 12C0 5.37258 5.37258 0 12 0H39C45.6274 0 51 5.37258 51 12V39C51 45.6274 45.6274 51 39 51H12C5.37258 51 0 45.6274 0 39V12ZM14 15C14 14.4477 14.4477 14 15 14H37C37.5523 14 38 14.4477 38 15V21C38 21.5523 37.5523 22 37 22H15C14.4477 22 14 21.5523 14 21V15ZM15 30C14.4477 30 14 30.4477 14 31V37C14 37.5523 14.4477 38 15 38H37C37.5523 38 38 37.5523 38 37V31C38 30.4477 37.5523 30 37 30H15Z" fill="#00C4A4"/>
</svg>
